<?xml version="1.0" standalone="no"?>
<!DOCTYPE svg PUBLIC "-//W3C//DTD SVG 20010904//EN"
 "http://www.w3.org/TR/2001/REC-SVG-20010904/DTD/svg10.dtd">
<svg version="1.0" xmlns="http://www.w3.org/2000/svg"
 width="313.000000pt" height="313.000000pt" viewBox="0 0 313.000000 313.000000"
 preserveAspectRatio="xMidYMid meet">

<g transform="translate(0.000000,313.000000) scale(0.100000,-0.100000)"
fill="#000000" stroke="none">
<path d="M1300 3070 c-476 -84 -892 -399 -1105 -835 -107 -218 -144 -371 -152
-625 -5 -149 -2 -193 16 -299 106 -624 586 -1119 1206 -1246 172 -35 429 -35
600 0 631 131 1103 624 1210 1264 25 150 17 424 -18 571 -145 608 -628 1067
-1235 1171 -150 25 -375 25 -522 -1z m425 -90 c20 0 31 -14 65 -79 65 -125 66
-126 75 -52 6 51 4 65 -10 81 -22 25 -8 30 48 18 50 -10 58 -21 28 -37 -14 -8
-22 -31 -31 -93 -17 -110 -24 -128 -53 -128 -19 0 -31 16 -72 101 l-50 101
-12 -64 c-11 -60 -11 -64 10 -80 19 -15 20 -18 5 -23 -23 -9 -101 8 -106 23
-2 6 3 12 12 12 21 0 31 23 45 108 12 65 11 75 -3 91 -17 19 -10 35 12 26 7
-3 24 -5 37 -5z m-349 -18 c6 -4 14 -19 18 -34 7 -32 -7 -36 -38 -13 -26 20
-51 19 -71 -1 -21 -22 -10 -32 55 -49 64 -17 90 -39 90 -77 0 -53 -56 -88
-140 -88 -46 0 -49 2 -55 31 -10 43 11 63 32 32 16 -24 65 -31 92 -14 22 14 5
28 -52 45 -61 18 -87 41 -87 79 0 31 43 84 73 90 38 7 72 7 83 -1z m-256 -73
c16 -28 5 -56 -15 -39 -11 9 -22 9 -50 0 -19 -6 -35 -13 -35 -14 0 -2 5 -17
11 -35 9 -24 16 -31 28 -26 61 25 73 27 81 14 12 -18 7 -24 -39 -39 -23 -7
-41 -15 -41 -17 0 -9 31 -63 36 -63 18 0 64 33 69 50 10 30 33 24 40 -11 4
-17 5 -32 3 -33 -1 -1 -44 -19 -95 -40 -84 -35 -132 -41 -104 -13 16 16 14 31
-20 112 -23 55 -37 75 -50 75 -44 0 -13 29 69 62 48 20 90 37 94 37 4 1 12 -8
18 -20z m1002 -16 c91 -39 101 -51 74 -88 -14 -19 -15 -19 -26 7 -10 21 -52
48 -76 48 -2 0 -24 -59 -24 -65 0 -1 20 -10 45 -19 39 -16 44 -20 35 -37 -11
-19 -11 -19 -50 1 -22 11 -41 20 -43 20 -3 0 -10 -14 -17 -31 -17 -41 -2 -54
61 -52 27 0 49 -1 49 -3 0 -3 -7 -18 -15 -34 l-15 -29 -92 40 c-110 48 -120
55 -86 68 34 13 97 154 80 181 -10 16 -7 30 7 30 3 0 45 -17 93 -37z m-1267
-106 c-5 -16 10 -44 55 -105 51 -69 59 -86 50 -102 -14 -26 -17 -25 -130 10
-52 16 -95 28 -97 26 -1 -1 12 -23 30 -49 25 -36 38 -47 60 -47 38 0 34 -13
-15 -49 -46 -34 -60 -33 -53 7 7 39 -85 163 -115 155 -32 -8 -24 19 13 44 l32
22 99 -29 c55 -17 100 -29 102 -27 1 1 -13 23 -33 50 -25 33 -42 47 -59 47
-35 0 -29 21 14 52 41 29 55 28 47 -5z m1533 -41 c15 -8 40 -28 55 -44 28 -29
28 -31 12 -56 -21 -32 -39 -29 -43 7 -4 30 -45 67 -74 67 -11 0 -35 -15 -54
-34 -41 -41 -44 -78 -10 -120 l23 -30 18 27 c20 32 36 34 58 9 15 -17 15 -21
-9 -55 -29 -44 -44 -43 -109 3 -50 35 -79 89 -70 130 8 36 49 88 79 100 33 14
94 11 124 -4z m-565 -115 c395 -106 687 -396 788 -784 28 -104 37 -324 19
-435 -71 -443 -421 -803 -860 -886 -103 -20 -304 -21 -402 -2 -230 44 -435
158 -593 328 -355 384 -383 965 -67 1384 158 209 390 354 658 409 103 21 355
14 457 -14z m775 -68 c56 -66 72 -93 72 -122 0 -32 -35 -61 -74 -61 -31 0 -35
-4 -42 -32 -4 -18 -6 -47 -6 -65 2 -62 -39 -50 -59 16 -8 28 -7 45 5 81 11 32
12 48 4 57 -9 11 -15 10 -33 -7 -13 -13 -21 -29 -18 -40 10 -36 -16 -29 -56
16 -41 47 -45 70 -10 59 23 -8 151 99 148 124 -4 47 10 41 69 -26z m-1935 -42
c40 -38 42 -42 42 -98 0 -63 -20 -100 -73 -135 -60 -40 -140 -8 -173 67 -28
63 -18 108 36 163 36 36 48 42 84 42 35 0 49 -7 84 -39z m-288 -217 c28 -18
33 -34 11 -34 -16 0 -56 -46 -56 -65 0 -10 40 -35 55 -35 3 0 14 18 25 41 15
28 26 39 36 35 9 -3 18 -6 20 -6 2 0 -5 -18 -16 -40 -26 -50 -25 -54 5 -68 34
-16 32 -16 50 17 9 18 12 41 9 60 -8 36 4 39 37 11 l24 -19 -49 -95 c-45 -89
-66 -109 -66 -68 0 26 -156 107 -175 92 -8 -6 -19 -9 -24 -5 -6 3 8 43 37 100
25 52 48 95 50 95 1 0 14 -7 27 -16z m2395 -3 c43 -22 80 -84 80 -132 0 -92
-122 -151 -207 -99 -59 35 -94 147 -60 191 22 29 81 59 117 59 19 0 51 -8 70
-19z m141 -301 c36 -38 49 -108 23 -127 -36 -27 -74 -7 -43 24 6 6 9 26 7 44
-2 26 -8 34 -22 34 -16 0 -22 -12 -32 -64 -8 -36 -20 -71 -28 -80 -19 -18 -70
-19 -92 0 -45 37 -72 160 -38 173 29 11 64 7 64 -9 0 -8 -5 -15 -10 -15 -18 0
-30 -48 -20 -75 16 -42 37 -30 49 26 14 64 27 88 54 99 31 12 58 3 88 -30z
m-2452 -26 c7 -6 -43 -194 -52 -194 -5 0 -16 9 -25 20 -24 27 -167 63 -182 44
-6 -7 -17 -11 -24 -8 -10 4 -10 16 2 62 19 71 20 72 41 44 12 -16 41 -29 94
-43 43 -11 82 -17 87 -14 16 10 12 57 -6 76 -9 10 -14 25 -10 34 5 14 9 14 38
-1 18 -9 35 -18 37 -20z m-99 -493 c0 -19 -3 -21 -14 -12 -22 19 -104 4 -111
-20 -4 -10 -3 -23 0 -29 8 -13 102 -13 110 0 10 16 25 1 25 -24 0 -21 -3 -22
-62 -18 -74 5 -98 22 -98 68 0 41 30 64 82 64 20 0 40 5 44 11 9 15 24 -9 24
-40z m2566 27 c-3 -13 -6 -29 -6 -36 0 -10 -4 -10 -20 0 -17 11 -22 10 -30 -2
-5 -8 -10 -21 -10 -28 0 -17 33 -29 38 -14 2 7 8 12 13 12 10 0 12 -43 3 -53
-11 -11 -144 67 -144 83 0 10 24 22 73 36 94 28 90 28 83 2z m-2546 -179 c0
-12 -17 -41 -37 -66 l-38 -46 30 7 c17 4 36 14 42 23 15 20 19 17 29 -21 5
-22 4 -27 -5 -21 -7 4 -40 2 -72 -5 -82 -18 -90 -6 -38 54 23 26 39 49 37 52
-8 7 -61 -15 -70 -29 -6 -9 -11 -8 -18 3 -18 28 -12 48 13 43 30 -6 107 14
107 28 0 6 5 7 10 4 6 -3 10 -15 10 -26z m2441 14 c27 -16 31 -16 59 0 25 15
30 16 30 3 0 -20 -26 -45 -56 -52 -32 -8 -25 -30 10 -27 24 2 25 -1 20 -25 -8
-34 -13 -39 -22 -26 -10 15 -97 35 -117 27 -13 -5 -16 -2 -12 13 3 10 8 34 12
51 4 18 14 37 23 43 22 12 19 13 53 -7z m-2381 -205 c0 -5 -11 -8 -24 -8 -31
0 -93 -26 -99 -42 -6 -17 -22 -1 -32 31 -6 20 -4 23 9 18 20 -8 98 21 110 41
7 12 11 11 22 -9 7 -13 13 -27 14 -31z m2420 24 c0 -10 -7 -27 -15 -38 -13
-17 -14 -17 -15 -1 0 24 -37 22 -45 -3 -9 -27 3 -42 26 -35 21 7 25 -10 9 -35
-8 -12 -19 -5 -65 40 -30 30 -55 60 -55 67 0 8 23 13 73 16 39 1 75 4 80 5 4
1 7 -6 7 -16z m-2400 -71 c14 -27 13 -41 -3 -35 -7 2 -26 -9 -42 -26 l-29 -30
39 0 c24 0 42 6 51 17 11 16 13 15 25 -12 8 -17 29 -51 47 -78 28 -39 32 -50
22 -62 -14 -17 -32 -11 -25 8 8 20 -11 41 -30 33 -11 -4 -15 -12 -10 -24 4 -9
9 -23 12 -29 9 -21 -15 -15 -27 7 -9 16 -15 18 -31 10 -15 -9 -17 -15 -9 -30
6 -11 18 -20 26 -20 9 0 14 -6 12 -12 -9 -27 -34 -16 -60 25 -31 49 -35 69
-14 61 21 -8 98 46 94 65 -3 13 -17 16 -80 13 -45 -1 -79 2 -83 8 -6 10 83
128 97 129 4 1 12 -8 18 -18z m2220 -31 c0 -5 24 -22 53 -36 58 -30 67 -39 67
-71 0 -28 -16 -30 -23 -4 -6 23 -100 73 -121 65 -19 -7 -20 -3 -4 31 11 25 28
34 28 15z m6 -122 c65 -12 73 -20 50 -50 -16 -22 -26 -23 -26 -3 0 22 -38 18
-45 -5 -9 -27 3 -42 27 -34 17 5 18 3 9 -14 -19 -36 -27 -33 -69 29 -64 93
-60 98 54 77z m-2028 -186 c-2 -20 -9 -28 -28 -31 -30 -4 -40 -17 -40 -54 0
-19 -4 -27 -12 -24 -9 3 -13 22 -12 56 1 28 -1 51 -5 51 -16 -1 -33 -19 -27
-29 13 -21 -10 -11 -34 14 -20 21 -21 25 -6 25 23 0 96 61 96 80 0 9 14 0 36
-23 26 -28 34 -45 32 -65z m1906 13 c39 -30 56 -26 56 11 0 27 12 31 29 11 8
-11 2 -25 -26 -61 -32 -42 -38 -45 -44 -29 -10 28 -67 73 -90 73 -20 0 -20 1
2 31 21 30 23 31 30 12 4 -12 23 -33 43 -48z m-5 -102 c6 -4 -31 -43 -41 -43
-4 0 -8 6 -8 14 0 22 -27 26 -43 8 -19 -22 -11 -42 16 -42 l21 0 -21 -22 c-13
-12 -24 -20 -26 -17 -2 2 -16 35 -30 73 -37 95 -27 105 61 63 37 -17 69 -33
71 -34z m-1809 23 c13 -15 20 -32 17 -40 -9 -22 -27 -20 -27 3 0 23 -25 46
-35 32 -3 -6 -1 -19 5 -30 26 -50 -1 -98 -45 -81 -30 11 -58 47 -52 65 9 21
27 19 27 -3 0 -19 18 -42 33 -42 9 0 5 38 -8 71 -7 20 19 49 44 49 10 0 28
-11 41 -24z m81 -66 c17 -14 20 -19 9 -20 -19 -1 -76 -77 -72 -96 4 -18 -8
-18 -36 2 -25 17 -29 34 -8 34 19 0 74 71 69 88 -7 18 12 15 38 -8z m1556 -12
c38 -36 31 -79 -19 -122 -43 -38 -64 -46 -55 -22 7 18 -39 85 -65 95 -19 7
-17 10 23 39 50 37 84 40 116 10z m-1472 -46 c51 -35 65 -71 41 -107 -30 -45
-59 -52 -112 -24 -47 24 -68 49 -42 49 16 0 64 76 60 96 -4 20 7 17 53 -14z
m1316 -79 c59 -48 59 -48 38 -65 -26 -22 -43 -23 -36 -4 8 19 -16 38 -37 30
-20 -8 -21 -44 -1 -44 8 0 15 -3 15 -8 0 -10 -41 -35 -47 -28 -3 2 -7 41 -10
85 -5 62 -3 81 7 81 7 0 39 -21 71 -47z m-126 -72 c17 -51 8 -77 -33 -92 -44
-17 -69 -4 -87 45 -10 25 -25 48 -34 51 -13 5 -12 9 9 20 33 19 51 19 43 -1
-3 -8 2 -33 12 -55 13 -29 24 -39 41 -39 13 0 26 5 30 11 9 15 -17 90 -33 96
-19 8 -16 19 10 30 18 8 23 7 25 -6 2 -9 10 -36 17 -60z m-1027 -11 c-3 -85
-12 -96 -52 -67 -17 12 -17 14 -2 20 22 9 20 34 -3 46 -23 13 -45 -8 -35 -34
6 -15 4 -16 -17 -5 -13 7 -26 14 -28 16 -8 7 105 103 122 104 17 0 18 -8 15
-80z m123 29 c50 -17 69 -38 69 -76 0 -64 -48 -86 -135 -62 -33 9 -37 13 -24
23 20 14 43 81 36 107 -6 22 6 24 54 8z m719 -13 c0 -2 3 -11 6 -19 4 -11 -3
-14 -32 -13 -45 1 -63 -20 -48 -61 7 -22 17 -29 42 -31 28 -3 32 -1 29 20 -1
15 3 23 13 23 9 0 16 -11 18 -27 3 -22 -2 -30 -23 -38 -80 -30 -139 26 -109
105 10 24 104 61 104 41z m-400 -61 c26 -24 27 -78 0 -105 -16 -16 -33 -20
-80 -20 -33 0 -60 4 -60 10 0 6 4 10 9 10 16 0 25 91 11 113 -11 19 -9 19 44
15 35 -3 63 -12 76 -23z m160 6 c0 -17 -5 -19 -34 -14 -32 5 -34 3 -29 -16 3
-14 13 -21 29 -21 13 0 24 -4 24 -10 0 -5 -11 -10 -25 -10 -20 0 -25 -5 -25
-24 0 -20 4 -23 23 -19 12 3 28 10 35 16 9 7 12 4 12 -11 0 -22 -24 -32 -82
-32 -36 0 -47 8 -31 24 10 10 3 99 -9 113 -7 9 2 13 34 16 24 2 51 4 61 5 11
1 17 -5 17 -17z"/>
<path d="M1462 2609 c-121 -11 -234 -44 -348 -99 -227 -110 -392 -277 -499
-501 -223 -473 -61 -1037 380 -1325 480 -313 1123 -181 1441 296 104 157 154
296 174 483 70 649 -492 1210 -1148 1146z m305 -84 c473 -100 813 -545 779
-1021 -31 -439 -341 -802 -771 -900 -117 -27 -320 -25 -439 4 -106 26 -253 94
-340 156 -74 53 -198 181 -247 256 -114 173 -163 340 -163 550 1 202 53 372
165 539 156 234 409 391 691 431 80 11 237 4 325 -15z"/>
<path d="M1691 2411 c-18 -29 -50 -60 -75 -75 -24 -14 -55 -43 -68 -63 -20
-33 -23 -51 -23 -138 0 -97 27 -231 45 -220 4 2 5 63 2 134 -5 153 -2 162 82
210 32 18 62 43 71 60 16 32 21 126 6 135 -4 3 -22 -17 -40 -43z"/>
<path d="M1539 2437 c-28 -21 -38 -53 -45 -138 -7 -89 3 -99 26 -24 24 82 32
94 86 126 30 18 54 37 54 41 0 13 -103 9 -121 -5z"/>
<path d="M1389 2414 c11 -15 21 -36 21 -48 0 -21 47 -76 64 -76 5 0 6 21 3 46
-6 61 -35 98 -77 102 l-33 3 22 -27z"/>
<path d="M1795 2406 c-13 -13 -33 -55 -44 -93 -20 -68 -42 -98 -88 -122 -40
-20 -53 -63 -52 -158 0 -49 -1 -95 -3 -103 -2 -10 6 -16 25 -18 l29 -3 -7 55
c-11 89 -1 118 69 194 46 50 66 81 74 114 9 34 23 56 57 86 25 22 45 42 45 45
0 5 -57 27 -72 27 -5 0 -20 -11 -33 -24z"/>
<path d="M1257 2397 c-42 -33 -47 -90 -12 -142 29 -43 132 -132 142 -122 3 4
-12 26 -35 51 -72 78 -86 124 -57 193 8 19 15 37 15 39 0 11 -28 1 -53 -19z"/>
<path d="M1126 2348 c-57 -76 -77 -189 -43 -254 29 -56 119 -124 165 -124 17
0 44 -12 67 -30 54 -43 66 -41 41 8 -19 37 -43 56 -96 76 -59 23 -78 41 -106
101 -28 58 -30 108 -9 189 9 33 14 61 11 63 -2 2 -16 -11 -30 -29z"/>
<path d="M1342 2317 c3 -54 9 -70 36 -105 20 -25 45 -78 63 -132 33 -102 50
-140 73 -159 13 -11 16 -11 16 2 0 9 -5 28 -10 43 -6 15 -22 79 -35 142 -19
90 -31 124 -53 151 -16 20 -39 55 -51 79 -31 61 -44 54 -39 -21z"/>
<path d="M1880 2313 c-69 -67 -67 -70 21 -49 97 23 123 52 82 88 -32 27 -37
25 -103 -39z"/>
<path d="M2015 2265 c-27 -13 -83 -31 -124 -39 -41 -9 -82 -23 -91 -31 -10 -9
-39 -51 -65 -93 -47 -76 -47 -77 -36 -122 7 -26 9 -54 5 -63 -3 -9 -2 -17 2
-17 24 1 37 23 43 76 11 88 75 193 119 195 109 5 120 7 160 34 42 28 61 29
130 9 30 -9 28 8 -7 45 -36 38 -67 39 -136 6z"/>
<path d="M976 2239 c-9 -22 -19 -66 -22 -98 -9 -82 12 -121 89 -168 46 -29 64
-47 78 -80 21 -49 39 -56 39 -15 0 15 5 33 11 39 17 17 -18 67 -77 112 -61 46
-76 77 -82 169 -3 40 -8 75 -12 77 -4 3 -15 -13 -24 -36z"/>
<path d="M1177 2274 c-13 -14 -7 -89 12 -130 23 -50 64 -83 153 -123 55 -24
68 -35 73 -58 9 -40 20 -58 36 -58 31 0 -1 117 -44 163 -12 13 -51 41 -87 62
-44 26 -73 51 -90 79 -40 66 -45 73 -53 65z"/>
<path d="M2085 2180 c-16 -4 -44 -14 -62 -23 -17 -9 -58 -20 -90 -23 -107 -12
-143 -52 -142 -156 0 -63 9 -61 23 4 10 44 46 78 91 85 22 3 62 17 90 31 63
31 152 39 218 19 51 -16 52 -16 37 14 -21 38 -105 63 -165 49z"/>
<path d="M877 2152 c-23 -25 -37 -68 -37 -113 0 -57 37 -92 127 -119 39 -12
86 -32 104 -46 39 -29 47 -19 23 28 -21 41 -37 53 -96 73 -68 23 -88 53 -88
131 0 67 -6 76 -33 46z"/>
<path d="M2008 2078 c-50 -13 -48 -28 2 -28 23 0 59 -9 82 -21 49 -25 116 -22
156 8 41 30 36 38 -25 39 -32 1 -85 4 -118 7 -33 3 -77 1 -97 -5z"/>
<path d="M2295 2014 c-59 -63 -157 -68 -267 -13 -50 25 -70 30 -105 26 -66 -7
-113 -57 -55 -57 15 0 33 -5 40 -12 8 -8 15 -8 26 1 12 10 30 6 93 -20 95 -38
169 -43 227 -14 49 25 79 64 74 97 l-3 25 -30 -33z"/>
<path d="M766 1964 c-25 -65 31 -134 110 -134 15 0 83 -19 151 -42 67 -23 126
-39 129 -35 11 11 -8 47 -25 47 -10 0 -45 18 -77 40 -34 23 -94 51 -140 65
-50 16 -90 35 -104 50 -27 29 -36 31 -44 9z"/>
<path d="M2318 1922 c-21 -10 -38 -20 -38 -24 0 -3 29 -6 65 -6 36 1 65 4 65
7 -1 14 -28 41 -41 40 -8 0 -31 -8 -51 -17z"/>
<path d="M1960 1901 c0 -11 19 -33 48 -54 81 -59 109 -70 166 -63 179 22 179
22 225 -19 l41 -37 0 34 c0 79 -73 117 -183 98 -76 -14 -119 -8 -209 30 -83
35 -88 36 -88 11z"/>
<path d="M710 1854 c0 -84 38 -114 143 -114 77 0 157 10 157 20 0 16 -56 30
-120 30 -59 0 -73 4 -99 26 -17 14 -39 39 -48 55 -24 41 -33 36 -33 -17z"/>
<path d="M1976 1823 c-3 -4 -6 -23 -6 -44 0 -51 28 -75 99 -89 113 -21 128
-29 188 -91 32 -33 76 -70 98 -81 22 -11 55 -31 72 -44 l32 -25 6 24 c8 30
-10 76 -32 83 -70 24 -135 62 -182 108 -46 43 -69 57 -128 75 -54 16 -78 29
-94 51 -23 30 -43 43 -53 33z"/>
<path d="M2191 1761 c-11 -7 -5 -14 25 -29 21 -11 48 -29 58 -41 11 -12 38
-26 60 -32 23 -6 61 -26 85 -45 24 -19 49 -34 54 -34 17 0 -1 72 -24 96 -15
16 -34 24 -55 24 -19 0 -44 9 -61 24 -54 45 -107 59 -142 37z"/>
<path d="M670 1728 c0 -24 30 -58 68 -77 58 -29 101 -33 167 -15 111 30 130
33 235 38 58 3 106 9 108 14 6 20 -32 34 -121 44 -93 11 -95 11 -201 -22 -99
-31 -111 -33 -153 -22 -25 7 -59 22 -74 33 -21 15 -29 17 -29 7z"/>
<path d="M1903 1718 c-33 -16 -28 -45 10 -64 17 -9 47 -28 65 -42 20 -16 46
-25 65 -25 60 1 157 16 157 24 0 4 -35 15 -77 24 -120 26 -142 34 -165 66 -24
32 -24 32 -55 17z"/>
<path d="M1325 1700 c-9 -14 55 -73 74 -67 46 13 46 13 43 -25 -4 -53 21 -50
35 5 7 23 15 51 19 61 6 16 4 18 -17 13 -14 -3 -32 0 -43 9 -22 16 -102 19
-111 4z"/>
<path d="M1694 1696 c-10 -8 -29 -12 -41 -9 -27 6 -28 4 -6 -64 20 -63 33 -68
33 -12 0 35 3 40 18 34 38 -16 48 -14 81 16 26 24 31 33 20 40 -22 14 -83 11
-105 -5z"/>
<path d="M1205 1635 c-19 -9 -67 -14 -128 -15 -117 0 -142 -9 -227 -83 -60
-53 -128 -87 -172 -87 -25 0 -23 -13 11 -49 45 -48 71 -41 161 44 78 73 124
95 203 95 68 0 158 22 175 43 14 17 26 67 16 66 -5 0 -22 -7 -39 -14z"/>
<path d="M655 1621 c-6 -10 23 -64 42 -78 26 -20 69 -15 126 14 l52 27 -65 8
c-36 5 -84 15 -108 22 -23 7 -44 10 -47 7z"/>
<path d="M1887 1578 c7 -56 24 -81 66 -102 47 -21 86 -20 184 5 l82 22 33 -22
c64 -41 119 -62 151 -59 l32 3 -41 22 c-22 12 -66 43 -98 68 -70 58 -109 65
-184 36 -85 -34 -126 -25 -186 38 -17 17 -33 31 -37 31 -4 0 -5 -19 -2 -42z"/>
<path d="M1194 1534 c-24 -19 -51 -27 -112 -34 -118 -13 -155 -33 -216 -113
-26 -34 -68 -56 -136 -74 l-35 -9 32 -17 c75 -40 170 -12 212 63 35 62 60 78
141 90 93 14 160 50 160 85 0 34 -11 36 -46 9z"/>
<path d="M1860 1475 c-28 -29 -24 -35 56 -90 45 -32 65 -39 98 -38 23 1 68 2
101 3 41 1 77 -5 113 -19 67 -27 71 -8 9 43 -61 50 -90 59 -174 51 -79 -7 -98
-1 -149 46 l-30 29 -24 -25z"/>
<path d="M1226 1461 c-16 -18 -54 -36 -130 -63 -58 -20 -75 -49 -86 -153 -14
-124 -36 -193 -71 -226 -16 -15 -29 -30 -29 -33 0 -3 18 -6 39 -6 31 0 44 6
64 30 27 32 30 42 52 173 20 130 37 156 121 190 38 15 78 36 88 47 19 19 19
20 1 40 -22 25 -27 25 -49 1z"/>
<path d="M2200 1458 c1 -20 50 -72 104 -108 34 -23 54 -46 68 -78 l21 -46 18
23 c27 33 34 86 16 115 -12 17 -32 26 -79 35 -39 8 -79 24 -105 42 -27 19 -43
25 -43 17z"/>
<path d="M1454 1439 c-13 -15 -13 -18 1 -32 8 -9 33 -26 56 -39 47 -26 49 -50
6 -82 -23 -17 -44 -21 -105 -22 -82 -1 -98 -12 -57 -38 20 -13 25 -24 25 -61
0 -37 -6 -51 -39 -88 -36 -42 -77 -142 -96 -234 -7 -36 10 -76 49 -112 31 -29
40 -24 26 13 -15 40 -12 136 5 187 9 25 33 67 55 93 48 58 57 87 42 140 -14
50 -7 57 82 81 59 16 67 16 118 1 31 -9 66 -24 78 -34 l23 -18 -32 -36 c-50
-57 -45 -79 44 -202 32 -44 35 -54 29 -92 -6 -45 3 -92 16 -78 13 15 40 106
40 135 0 16 -17 50 -44 86 -56 75 -61 95 -38 162 31 87 58 93 91 21 16 -35 36
-60 67 -81 25 -17 49 -40 53 -52 5 -12 8 -70 9 -129 0 -115 6 -148 26 -148 26
0 38 49 26 107 -8 39 -9 63 -1 85 6 17 11 52 11 78 0 54 -16 73 -96 113 -44
22 -55 34 -79 84 -24 52 -28 56 -40 39 -27 -36 -163 -33 -204 5 -33 31 -26 53
29 87 28 17 50 35 50 40 0 24 -35 35 -121 36 -72 1 -93 -2 -105 -15z"/>
<path d="M1820 1386 c0 -43 89 -97 220 -136 41 -12 90 -31 108 -42 43 -27 80
-92 94 -168 11 -64 18 -67 36 -13 9 29 7 42 -20 100 -62 137 -103 172 -217
183 -84 9 -141 32 -180 74 -31 32 -41 33 -41 2z"/>
<path d="M1269 1384 c-7 -9 -39 -33 -70 -54 -59 -41 -89 -86 -89 -137 0 -47
-21 -145 -37 -176 -8 -16 -35 -49 -60 -74 -24 -25 -42 -47 -39 -50 14 -14 81
12 117 44 58 53 88 119 100 220 11 100 28 137 75 165 26 15 34 27 34 49 0 32
-11 37 -31 13z"/>
<path d="M950 1304 c-47 -62 -101 -93 -162 -94 -21 0 -38 -4 -38 -9 0 -19 53
-43 86 -39 37 4 43 -2 19 -22 -8 -7 -19 -28 -24 -47 -11 -39 3 -87 32 -112 16
-12 17 -9 17 41 0 51 4 59 42 103 36 41 43 56 50 111 4 35 14 77 23 94 25 48
1 35 -45 -26z"/>
<path d="M1820 1317 c0 -18 99 -112 140 -132 19 -10 48 -29 63 -44 l29 -26 -7
-110 c-6 -100 -4 -113 14 -142 12 -18 25 -33 30 -33 16 0 34 59 25 87 -4 16
-7 67 -5 115 2 87 2 87 -34 127 -21 23 -68 56 -109 76 -40 20 -86 49 -101 66
-31 31 -45 37 -45 16z"/>
<path d="M1273 1288 c-20 -22 -57 -157 -46 -168 11 -11 63 65 63 92 0 16 8 33
21 41 17 13 19 19 10 36 -15 27 -23 26 -48 -1z"/>
<path d="M2222 1259 c45 -43 58 -62 63 -94 13 -85 35 -93 56 -23 13 43 14 59
4 83 -14 36 -73 71 -135 81 l-45 7 57 -54z"/>
<path d="M1764 1195 c-11 -42 5 -90 51 -161 65 -98 61 -158 -15 -270 -18 -25
-30 -48 -27 -50 7 -7 90 45 100 63 7 11 12 9 27 -9 24 -30 33 -20 19 22 -9 25
-9 48 1 97 15 80 9 104 -45 175 -24 31 -56 80 -70 107 -14 28 -27 51 -30 51
-3 0 -7 -11 -11 -25z"/>
<path d="M1295 1152 c-27 -30 -70 -94 -95 -141 -47 -88 -87 -127 -142 -138
-59 -12 -17 -48 47 -41 37 5 45 3 45 -11 0 -18 27 -61 38 -61 4 0 7 26 7 58 1
48 9 75 49 159 27 56 64 117 82 134 32 31 46 81 27 92 -5 3 -30 -20 -58 -51z"/>
<path d="M2111 1174 c16 -27 24 -60 30 -126 4 -49 13 -95 19 -103 7 -8 26 -15
42 -15 l30 0 -18 28 c-14 20 -17 42 -15 89 2 62 2 63 -45 113 -55 59 -75 65
-43 14z"/>
<path d="M1457 1114 c-4 -4 -7 -16 -7 -27 0 -10 -16 -50 -34 -89 -39 -78 -38
-92 13 -157 37 -47 47 -68 55 -113 11 -63 23 -51 30 32 l7 79 -35 47 c-20 26
-36 55 -36 66 0 10 12 41 26 69 14 28 24 60 22 72 -3 22 -28 34 -41 21z"/>
<path d="M1602 1103 c-17 -32 -23 -98 -13 -123 6 -14 27 -47 46 -74 40 -56 43
-80 15 -167 -10 -35 -17 -65 -14 -68 2 -3 17 0 32 5 38 13 62 66 62 137 0 67
-16 107 -67 166 -33 40 -35 45 -29 92 5 40 4 49 -8 49 -9 0 -19 -8 -24 -17z"/>
<path d="M1533 1098 c-20 -25 -45 -119 -39 -144 4 -14 22 -48 41 -76 34 -48
34 -51 20 -85 -18 -44 -19 -84 -2 -107 12 -16 17 -10 50 57 20 41 37 86 37 99
0 15 -16 40 -46 68 -68 66 -69 72 -40 137 14 30 26 57 26 59 0 10 -39 3 -47
-8z"/>
<path d="M1345 850 c-5 -47 -4 -66 9 -84 16 -26 106 -91 106 -77 0 25 -27 80
-52 107 -19 20 -32 46 -35 73 -8 59 -20 51 -28 -19z"/>
<path d="M2546 2481 c-29 -30 -29 -31 -11 -51 22 -24 38 -25 59 -4 21 20 20
37 -2 63 l-17 22 -29 -30z"/>
<path d="M512 2457 c-12 -13 -22 -33 -22 -44 0 -29 38 -73 78 -90 32 -13 37
-13 61 5 16 11 27 31 29 49 2 24 -5 37 -38 66 -46 43 -78 47 -108 14z"/>
<path d="M2670 2218 c-46 -32 -56 -51 -44 -85 19 -54 93 -56 145 -3 34 33 37
62 9 90 -26 26 -69 25 -110 -2z"/>
<path d="M2816 1441 c-3 -5 1 -11 9 -15 9 -3 15 0 15 9 0 16 -16 20 -24 6z"/>
<path d="M2766 1284 c-8 -22 -9 -21 19 -26 21 -4 25 -1 25 18 0 28 -34 34 -44
8z"/>
<path d="M2740 1110 c19 -13 30 -13 30 0 0 6 -10 10 -22 10 -19 0 -20 -2 -8
-10z"/>
<path d="M2626 885 c7 -17 20 -20 28 -6 3 5 -1 12 -10 15 -22 9 -24 8 -18 -9z"/>
<path d="M590 765 c-10 -11 -10 -19 -2 -27 15 -15 44 -2 40 19 -4 23 -22 27
-38 8z"/>
<path d="M2430 664 c0 -17 17 -36 24 -26 3 5 -1 15 -9 22 -8 7 -15 9 -15 4z"/>
<path d="M2295 569 c-7 -10 42 -89 54 -89 14 0 31 25 31 45 0 40 -67 75 -85
44z"/>
<path d="M866 478 c-22 -37 -23 -44 -10 -51 25 -14 63 1 70 27 17 70 -23 86
-60 24z"/>
<path d="M2170 450 c0 -13 5 -18 15 -14 12 5 13 10 4 20 -15 19 -19 18 -19 -6z"/>
<path d="M1031 416 c-8 -10 -9 -16 -1 -21 5 -3 13 1 16 10 9 22 -1 29 -15 11z"/>
<path d="M1179 363 c-6 -16 -13 -40 -16 -55 -5 -25 -3 -28 20 -28 27 0 57 32
57 61 0 15 -30 49 -44 49 -3 0 -11 -12 -17 -27z"/>
<path d="M1440 284 c0 -54 0 -55 28 -52 24 3 27 8 30 43 3 29 -1 43 -14 52
-35 25 -44 16 -44 -43z"/>
</g>
</svg>
